<?xml version="1.0" standalone="no"?>
<!DOCTYPE svg PUBLIC "-//W3C//DTD SVG 20010904//EN"
 "http://www.w3.org/TR/2001/REC-SVG-20010904/DTD/svg10.dtd">
<svg version="1.0" xmlns="http://www.w3.org/2000/svg"
 width="272.000000pt" height="272.000000pt" viewBox="0 0 272.000000 272.000000"
 preserveAspectRatio="xMidYMid meet">
<metadata>
Created by potrace 1.11, written by Peter Selinger 2001-2013
</metadata>
<g transform="translate(0.000000,272.000000) scale(0.100000,-0.100000)"
fill="#000000" stroke="none">
<path d="M1260 2685 c-36 -13 -128 -46 -205 -73 -77 -28 -212 -76 -300 -107
-298 -107 -410 -146 -541 -193 l-132 -46 3 -31 c10 -90 17 -153 20 -180 2 -16
6 -52 9 -80 11 -88 25 -209 31 -255 2 -19 7 -63 10 -97 3 -34 7 -70 9 -80 2
-10 7 -49 10 -88 4 -38 9 -81 11 -95 2 -14 6 -47 10 -75 8 -79 15 -137 20
-180 3 -22 7 -65 10 -95 3 -30 8 -68 10 -85 10 -63 14 -102 19 -155 3 -30 9
-81 12 -112 l7 -58 286 -158 c157 -88 306 -171 331 -184 25 -14 136 -76 248
-138 l203 -112 207 114 c783 432 873 484 877 503 2 11 7 39 9 63 3 24 10 83
16 130 6 48 13 107 16 132 3 25 7 56 9 70 2 14 6 50 10 80 4 30 8 66 10 80 2
14 27 207 55 430 27 223 52 419 54 435 15 104 28 226 25 229 -2 2 -74 27 -159
56 -85 29 -337 114 -560 190 -223 76 -438 150 -479 164 -89 31 -88 31 -171 1z"/>
</g>
</svg>
